<?xml version="1.0" encoding="UTF-8" standalone="no"?>
<!-- Created with Inkscape (http://www.inkscape.org/) -->

<svg
   width="210mm"
   height="297mm"
   viewBox="0 0 210 297"
   version="1.1"
   id="svg1"
   inkscape:version="1.3.2 (091e20e, 2023-11-25)"
   sodipodi:docname="BoneR_Icon.svg"
   xmlns:inkscape="http://www.inkscape.org/namespaces/inkscape"
   xmlns:sodipodi="http://sodipodi.sourceforge.net/DTD/sodipodi-0.dtd"
   xmlns="http://www.w3.org/2000/svg"
   xmlns:svg="http://www.w3.org/2000/svg">
  <sodipodi:namedview
     id="namedview1"
     pagecolor="#ffffff"
     bordercolor="#000000"
     borderopacity="0.25"
     inkscape:showpageshadow="2"
     inkscape:pageopacity="0.0"
     inkscape:pagecheckerboard="0"
     inkscape:deskcolor="#d1d1d1"
     inkscape:document-units="mm"
     inkscape:zoom="0.2491366"
     inkscape:cx="-116.40201"
     inkscape:cy="588.03083"
     inkscape:window-width="1920"
     inkscape:window-height="1046"
     inkscape:window-x="1920"
     inkscape:window-y="0"
     inkscape:window-maximized="1"
     inkscape:current-layer="layer1" />
  <defs
     id="defs1">
    <inkscape:path-effect
       effect="fill_between_many"
       id="path-effect15"
       is_visible="true"
       lpeversion="1.2"
       linkedpaths=""
       method="bsplinespiro"
       join="true"
       close="true"
       autoreverse="true" />
  </defs>
  <g
     inkscape:label="Layer 1"
     inkscape:groupmode="layer"
     id="layer1">
    <path
       id="path1"
       style="fill:#d9d5ab;stroke:#000000;stroke-width:1.241;stroke-linecap:round;fill-opacity:1;stroke-dasharray:none"
       d="m 58.017578,37.291016 c -8.10499,2.392082 -18.677255,6.383418 -17.220451,16.910859 1.455047,11.633495 6.974541,22.428209 7.878603,34.193591 1.452765,10.250617 6.006995,19.786414 6.7524,30.188824 1.142789,9.52936 3.197164,18.93821 2.686838,28.59081 -0.164325,11.30862 0.601371,22.68887 -0.298872,33.94909 -1.789217,10.58186 -5.146909,20.84097 -8.457262,31.00107 -3.514016,8.22878 -9.840956,17.12719 -6.223602,26.41471 5.305711,6.80213 15.032686,-4.51951 21.753811,2.22429 5.203982,7.51271 20.653387,3.69552 16.819726,-6.56943 -1.564864,-8.27738 -7.529218,-15.01572 -8.510506,-23.51911 -3.910827,-18.62682 -1.753131,-37.68957 -2.377256,-56.55465 -0.418541,-13.59138 1.657111,-27.2238 -0.191873,-40.77048 C 67.529356,103.81084 66.518071,93.41962 66.290435,83.508618 68.334625,74.99839 75.400757,69.405511 81.511896,64.235572 81.754259,55.871487 67.166519,61.251498 66.338215,51.613778 66.614548,45.462674 63.746098,40.204187 58.017578,37.291016 Z"
       inkscape:export-filename="BoneR.png"
       inkscape:export-xdpi="96"
       inkscape:export-ydpi="96" />
    <path
       id="path1-7"
       style="fill:#d8d8cb;fill-opacity:1;stroke:none;stroke-width:0.590529;stroke-linecap:round;stroke-dasharray:none"
       d="m 60.577412,51.352985 c -2.123189,2.067661 -8.803099,5.370472 -8.421473,14.470149 0.381165,10.055732 3.838627,19.076342 4.075456,29.246069 0.380567,8.860407 3.472416,17.560227 3.667683,26.551837 0.299366,8.23696 1.720609,16.49844 1.586924,24.84193 -0.04305,9.77491 0.235826,18.69673 0,28.42981 -0.468704,9.14672 -2.309655,18.80079 -3.176838,27.58295 -0.920534,7.11277 -6.612205,16.35324 -5.664601,24.38116 1.389888,5.87961 8.253243,-1.75819 10.013913,4.071 1.363239,6.49381 11.550605,4.02355 10.546337,-4.84924 -0.409935,-7.15478 -5.008063,-17.37178 -5.265122,-24.72191 -1.024483,-16.1006 -1.214679,-31.30213 -1.378175,-47.60868 -0.109642,-11.74807 0.03574,-24.94147 -0.448618,-36.65091 -0.81202,-8.24594 -2.30071,-17.135485 -2.360342,-25.702328 0.535497,-7.356049 1.378571,-12.282799 2.979449,-16.751577 0.06349,-7.229721 -3.757924,-2.579362 -3.974907,-10.909988 0.07239,-5.316877 -0.679032,-9.862193 -2.179679,-12.380272 z"
       sodipodi:nodetypes="scccccccccccccccss" />
  </g>
  <g
     id="g362"
     style="stroke:#ff0000">
    <path
       d="m 196.052,206.412 c -5.938,8.145 -23.425,5.941 -29.317,3.935 v 0 c -5.893,-2.006 -22.001,-15.65 -26.723,-29.573 v 0 c -3.741,-11.712 -6.978,-23.555 -9.888,-35.499 v 0 c -2.006,-9.274 -11.293,-14.371 -17.682,-15.842 v 0 c -6.389,-1.472 -20.0607,-1.123 -10.645,-1.753 v 0 c 15.016,-0.167 39.62,-0.163 50.929,-11.842 h 0.001 C 167.7,99.9007 168.419,78.1764 164.135,56.9259 v 0 C 161.245,44.7305 151.789,29.0334 137.943,27.1545 v 0 c -34.102,-4.4748 -68.2484,9.6446 -94.5,30.7515"
       style="display:none;fill:none;fill-opacity:1;stroke:#808080;stroke-width:2.141;stroke-linecap:butt;stroke-dasharray:none;stroke-opacity:1"
       id="path362" />
    <path
       style="display:inline;fill:none;fill-opacity:1;stroke:#1e1e1e;stroke-width:2.141;stroke-linecap:butt;stroke-dasharray:none;stroke-opacity:1"
       d="m 43.442962,57.906044 c 26.251667,-21.106979 60.397738,-35.2263 94.500528,-30.751588 13.84504,1.878956 23.30106,17.576047 26.192,29.771458 4.28385,21.250494 3.56473,42.974759 -11.40872,58.911836 -11.30864,11.67938 -35.91373,11.67527 -50.93014,11.84252 -9.415294,0.62968 4.2561,0.2807 10.64516,1.75234 6.38905,1.47164 15.67627,6.5686 17.68184,15.84219 2.91085,11.94402 6.14696,23.78727 9.88834,35.49872 4.72165,13.92398 20.83018,27.56759 26.72269,29.57348 5.89252,2.00589 23.3793,4.21037 29.31716,-3.93521"
       id="path2-2"
       sodipodi:nodetypes="ccccczcczc" />
    <path
       d="m 195.171,207.769 c -5.938,8.145 -23.425,5.941 -29.317,3.935 v 0 c -5.893,-2.006 -22.001,-15.649 -26.723,-29.573 v 0 c -3.741,-11.712 -6.977,-23.555 -9.888,-35.499 v 0 c -2.006,-9.274 -11.293,-14.371 -17.682,-15.842 v 0 c -6.389,-1.472 -20.0605,-1.123 -10.645,-1.753 v 0 c 15.016,-0.167 39.62,-0.163 50.929,-11.842 h 0.001 c 14.973,-15.937 15.692,-37.6615 11.409,-58.9119 V 58.283 C 160.364,46.0876 150.908,30.3905 137.063,28.5115 v 0 C 102.96,24.0368 68.8137,38.1561 42.562,59.2631"
       style="stroke:#ff0000;fill:none;fill-opacity:1;stroke-width:2.141;stroke-linecap:butt;stroke-dasharray:none;stroke-opacity:1"
       id="path361" />
    <path
       d="m 194.29,209.126 c -5.938,8.145 -23.425,5.941 -29.317,3.935 v 0 c -5.893,-2.006 -22.001,-15.649 -26.723,-29.573 v 0 c -3.741,-11.712 -6.977,-23.555 -9.888,-35.499 v 0 c -2.006,-9.274 -11.293,-14.371 -17.682,-15.842 v 0 c -6.389,-1.472 -20.0604,-1.123 -10.645,-1.753 v 0 c 15.016,-0.167 39.621,-0.163 50.929,-11.842 h 0.001 c 14.973,-15.937 15.692,-37.6614 11.409,-58.9118 v -1e-4 C 159.483,47.4447 150.027,31.7476 136.182,29.8686 v 0 C 102.079,25.3939 67.9328,39.5132 41.6811,60.6202"
       style="stroke:#ff0000;fill:none;fill-opacity:1;stroke-width:2.141;stroke-linecap:butt;stroke-dasharray:none;stroke-opacity:1"
       id="path360" />
    <path
       d="m 193.409,210.483 c -5.938,8.146 -23.424,5.941 -29.317,3.935 v 0 c -5.893,-2.006 -22.001,-15.649 -26.723,-29.573 v 0 c -3.741,-11.712 -6.977,-23.555 -9.888,-35.499 v 0 c -2.006,-9.274 -11.293,-14.37 -17.682,-15.842 v 0 c -6.389,-1.472 -20.0603,-1.123 -10.6453,-1.752 h 1e-4 c 15.0162,-0.168 39.6212,-0.164 50.9302,-11.843 v 0 c 14.973,-15.937 15.693,-37.6612 11.409,-58.9117 v -2e-4 C 158.602,48.8018 149.146,33.1047 135.301,31.2257 v 0 C 101.198,26.751 67.0518,40.8703 40.8002,61.9773"
       style="stroke:#ff0000;fill:none;fill-opacity:1;stroke-width:2.141;stroke-linecap:butt;stroke-dasharray:none;stroke-opacity:1"
       id="path359" />
    <path
       d="m 192.528,211.84 c -5.938,8.146 -23.424,5.941 -29.317,3.935 v 0 c -5.893,-2.006 -22.001,-15.649 -26.723,-29.573 v 0 c -3.741,-11.712 -6.977,-23.555 -9.888,-35.499 v 0 c -2.006,-9.273 -11.293,-14.37 -17.682,-15.842 v 0 c -6.389,-1.472 -20.0602,-1.123 -10.6453,-1.752 h 2e-4 c 15.0161,-0.168 39.6211,-0.164 50.9301,-11.843 v 0 c 14.973,-15.937 15.693,-37.6611 11.409,-58.9115 v -3e-4 C 157.721,50.1589 148.265,34.4618 134.42,32.5828 v 0 C 100.317,28.1081 66.1709,42.2274 39.9192,63.3344"
       style="stroke:#ff0000;fill:none;fill-opacity:1;stroke-width:2.141;stroke-linecap:butt;stroke-dasharray:none;stroke-opacity:1"
       id="path358" />
    <path
       d="m 191.647,213.197 c -5.938,8.146 -23.424,5.941 -29.317,3.935 v 0 c -5.892,-2.005 -22.001,-15.649 -26.723,-29.573 v 0 c -3.741,-11.711 -6.977,-23.555 -9.888,-35.499 v 0 c -2.006,-9.273 -11.293,-14.37 -17.682,-15.842 v 0 c -6.389,-1.472 -20.0601,-1.123 -10.6453,-1.752 h 3e-4 c 15.016,-0.168 39.621,-0.163 50.93,-11.842 v -10e-4 c 14.973,-15.937 15.693,-37.661 11.409,-58.9114 v -3e-4 C 156.84,51.516 147.384,35.819 133.539,33.9399 v -1e-4 C 99.436,29.4651 65.29,43.5845 39.0383,64.6914"
       style="stroke:#ff0000;fill:none;fill-opacity:1;stroke-width:2.141;stroke-linecap:butt;stroke-dasharray:none;stroke-opacity:1"
       id="path357" />
    <path
       d="m 190.766,214.554 c -5.938,8.146 -23.424,5.941 -29.317,3.936 v -0.001 c -5.892,-2.005 -22.001,-15.649 -26.723,-29.573 v 0 c -3.741,-11.711 -6.977,-23.555 -9.888,-35.499 v 0 c -2.006,-9.273 -11.293,-14.37 -17.682,-15.842 v 0 c -6.389,-1.472 -20.0599,-1.123 -10.6453,-1.752 h 3e-4 c 15.016,-0.168 39.621,-0.163 50.93,-11.842 v -10e-4 c 14.974,-15.937 15.693,-37.6609 11.409,-58.9113 v -3e-4 C 155.959,52.873 146.503,37.1761 132.658,35.297 v -10e-5 C 98.5551,30.8222 64.409,44.9415 38.1574,66.0485"
       style="stroke:#ff0000;fill:none;fill-opacity:1;stroke-width:2.141;stroke-linecap:butt;stroke-dasharray:none;stroke-opacity:1"
       id="path356" />
    <path
       d="m 189.885,215.911 c -5.937,8.146 -23.424,5.941 -29.317,3.936 v 0 c -5.892,-2.006 -22.001,-15.65 -26.722,-29.574 h -0.001 c -3.741,-11.711 -6.977,-23.554 -9.888,-35.498 v -0.001 c -2.005,-9.273 -11.292,-14.37 -17.681,-15.842 h -10e-4 c -6.3887,-1.471 -20.0598,-1.123 -10.6453,-1.752 h 4e-4 c 15.0159,-0.167 39.6209,-0.163 50.9299,-11.842 v -10e-4 C 161.534,109.4 162.253,87.6762 157.969,66.4259 v -4e-4 C 155.078,54.2301 145.622,38.5332 131.777,36.654 v 0 C 97.6742,32.1793 63.5281,46.2986 37.2764,67.4056"
       style="stroke:#ff0000;fill:none;fill-opacity:1;stroke-width:2.141;stroke-linecap:butt;stroke-dasharray:none;stroke-opacity:1"
       id="path355" />
    <path
       d="m 189.004,217.268 c -5.937,8.146 -23.424,5.942 -29.317,3.936 v 0 c -5.892,-2.006 -22.001,-15.65 -26.722,-29.574 v 0 c -3.742,-11.711 -6.978,-23.554 -9.889,-35.498 v -0.001 c -2.005,-9.273 -11.292,-14.37 -17.681,-15.842 h -10e-4 c -6.3886,-1.471 -20.0597,-1.122 -10.6453,-1.752 h 5e-4 c 15.0158,-0.167 39.6208,-0.163 50.9298,-11.842 v -10e-4 c 14.974,-15.937 15.693,-37.6606 11.409,-58.911 v -5e-4 C 154.197,55.5872 144.741,39.8903 130.896,38.0111 v 0 C 96.7932,33.5364 62.6472,47.6557 36.3955,68.7627"
       style="stroke:#ff0000;fill:none;fill-opacity:1;stroke-width:2.141;stroke-linecap:butt;stroke-dasharray:none;stroke-opacity:1"
       id="path354" />
    <path
       d="m 188.123,218.625 c -5.937,8.146 -23.424,5.942 -29.316,3.936 h -10e-4 c -5.892,-2.006 -22.001,-15.65 -26.722,-29.573 v -0.001 c -3.742,-11.711 -6.978,-23.554 -9.889,-35.498 v -0.001 c -2.005,-9.273 -11.292,-14.37 -17.681,-15.842 h -10e-4 c -6.3886,-1.471 -20.0596,-1.122 -10.6452,-1.752 h 4e-4 c 15.0168,-0.167 39.6208,-0.163 50.9298,-11.842 v -0.001 c 14.974,-15.936 15.693,-37.6605 11.409,-58.9108 v -6e-4 C 153.316,56.9443 143.86,41.2474 130.015,39.3682 v 0 C 95.9123,34.8934 61.7662,49.0128 35.5146,70.1197"
       style="stroke:#ff0000;fill:none;fill-opacity:1;stroke-width:2.141;stroke-linecap:butt;stroke-dasharray:none;stroke-opacity:1"
       id="path353" />
    <path
       d="m 187.242,219.983 c -5.937,8.145 -23.423,5.941 -29.316,3.935 h -10e-4 c -5.892,-2.006 -22,-15.649 -26.722,-29.573 v -0.001 c -3.742,-11.711 -6.978,-23.554 -9.889,-35.498 v 0 c -2.005,-9.274 -11.292,-14.371 -17.681,-15.843 h -10e-4 c -6.3885,-1.471 -20.0595,-1.122 -10.6452,-1.752 h 5e-4 c 15.0167,-0.167 39.6217,-0.163 50.9297,-11.842 v 0 c 14.974,-15.937 15.693,-37.6614 11.409,-58.9117 v -6e-4 C 152.435,58.3014 142.979,42.6045 129.135,40.7253 l -0.001,-10e-5 C 95.0314,36.2505 60.8853,50.3698 34.6336,71.4768"
       style="stroke:#ff0000;fill:none;fill-opacity:1;stroke-width:2.141;stroke-linecap:butt;stroke-dasharray:none;stroke-opacity:1"
       id="path352" />
    <path
       d="m 186.362,221.34 c -5.938,8.145 -23.424,5.941 -29.317,3.935 h -10e-4 c -5.892,-2.006 -22,-15.649 -26.722,-29.573 v -0.001 c -3.742,-11.711 -6.978,-23.554 -9.889,-35.498 v 0 c -2.005,-9.274 -11.292,-14.371 -17.681,-15.842 v -10e-4 c -6.3894,-1.471 -20.0603,-1.122 -10.6462,-1.752 h 6e-4 c 15.0166,-0.167 39.6216,-0.163 50.9296,-11.842 h 0.001 c 14.973,-15.937 15.692,-37.6613 11.408,-58.9116 v -6e-4 C 151.554,59.6585 142.098,43.9616 128.254,42.0824 l -0.001,-1e-4 C 94.1504,37.6076 60.0044,51.7269 33.7527,72.8339"
       style="stroke:#ff0000;fill:none;fill-opacity:1;stroke-width:2.141;stroke-linecap:butt;stroke-dasharray:none;stroke-opacity:1"
       id="path351" />
    <path
       d="m 185.481,222.697 c -5.938,8.145 -23.424,5.941 -29.317,3.935 h -10e-4 c -5.892,-2.006 -22,-15.649 -26.722,-29.573 v -0.001 c -3.742,-11.711 -6.978,-23.554 -9.888,-35.498 h -10e-4 c -2.005,-9.274 -11.292,-14.371 -17.681,-15.842 v 0 c -6.3893,-1.472 -20.0602,-1.123 -10.6462,-1.753 h 6e-4 c 15.0166,-0.167 39.6216,-0.163 50.9296,-11.842 h 0.001 c 14.973,-15.937 15.692,-37.6612 11.408,-58.9114 v -7e-4 C 150.673,61.0156 141.218,45.3187 127.373,43.4395 l -0.001,-1e-4 C 93.2695,38.9647 59.1235,53.084 32.8718,74.191"
       style="stroke:#ff0000;fill:none;fill-opacity:1;stroke-width:2.141;stroke-linecap:butt;stroke-dasharray:none;stroke-opacity:1"
       id="path350" />
    <path
       d="m 184.6,224.054 c -5.938,8.145 -23.424,5.941 -29.317,3.935 v 0 C 149.39,225.983 133.282,212.34 128.56,198.416 v 0 c -3.742,-11.712 -6.978,-23.555 -9.888,-35.499 h -10e-4 c -2.005,-9.274 -11.292,-14.37 -17.681,-15.842 v 0 c -6.3892,-1.472 -20.0601,-1.123 -10.6462,-1.753 h 7e-4 c 15.0165,-0.167 39.6215,-0.163 50.9305,-11.842 v 0 c 14.973,-15.937 15.692,-37.661 11.409,-58.9113 l -0.001,-8e-4 C 149.792,62.3727 140.337,46.6758 126.492,44.7965 h -0.001 C 92.3886,40.3218 58.2425,54.4411 31.9909,75.5481"
       style="stroke:#ff0000;fill:none;fill-opacity:1;stroke-width:2.141;stroke-linecap:butt;stroke-dasharray:none;stroke-opacity:1"
       id="path349" />
    <path
       d="m 183.719,225.411 c -5.938,8.145 -23.424,5.941 -29.317,3.935 v 0 c -5.893,-2.006 -22.001,-15.649 -26.723,-29.573 v 0 c -3.741,-11.712 -6.978,-23.555 -9.888,-35.499 v 0 c -2.006,-9.273 -11.293,-14.37 -17.682,-15.842 v 0 c -6.3892,-1.472 -20.06,-1.123 -10.6462,-1.753 h 8e-4 c 15.0164,-0.167 39.6214,-0.163 50.9304,-11.842 v 0 C 155.367,118.9 156.086,97.1761 151.803,75.9259 l -0.001,-9e-4 C 148.912,63.7298 139.456,48.0329 125.611,46.1536 l -0.001,-10e-5 C 91.5076,41.6788 57.3616,55.7982 31.1099,76.9051"
       style="stroke:#ff0000;fill:none;fill-opacity:1;stroke-width:2.141;stroke-linecap:butt;stroke-dasharray:none;stroke-opacity:1"
       id="path348" />
    <path
       d="m 182.838,226.768 c -5.938,8.145 -23.424,5.941 -29.317,3.935 v 0 c -5.893,-2.006 -22.001,-15.649 -26.723,-29.573 v 0 c -3.741,-11.712 -6.977,-23.555 -9.888,-35.499 v 0 c -2.006,-9.273 -11.293,-14.37 -17.6817,-15.842 h -5e-4 c -6.3889,-1.472 -20.0597,-1.123 -10.646,-1.753 h 9e-4 c 15.0163,-0.167 39.6213,-0.163 50.9303,-11.842 v 0 c 14.973,-15.937 15.692,-37.6608 11.409,-58.911 l -0.001,-9e-4 C 148.031,65.0868 138.575,49.39 124.73,47.5107 l -0.001,-1e-4 c -34.1023,-4.4747 -68.2483,9.6446 -94.5,30.7516"
       style="stroke:#ff0000;fill:none;fill-opacity:1;stroke-width:2.141;stroke-linecap:butt;stroke-dasharray:none;stroke-opacity:1"
       id="path347" />
    <path
       d="m 181.957,228.125 c -5.938,8.145 -23.424,5.941 -29.317,3.935 v 0 c -5.893,-2.006 -22.001,-15.649 -26.723,-29.573 v 0 c -3.741,-11.712 -6.977,-23.555 -9.888,-35.498 v -0.001 c -2.006,-9.273 -11.293,-14.37 -17.6816,-15.842 h -5e-4 c -6.3889,-1.472 -20.0596,-1.123 -10.646,-1.752 h 8e-4 c 15.0163,-0.168 39.6213,-0.164 50.9303,-11.843 v 0 c 14.973,-15.937 15.692,-37.6607 11.409,-58.9109 v -9e-4 C 147.15,66.4439 137.694,50.7471 123.849,48.8678 v -1e-4 C 89.7458,44.393 55.5997,58.5123 29.3481,79.6193"
       style="stroke:#ff0000;fill:none;fill-opacity:1;stroke-width:2.141;stroke-linecap:butt;stroke-dasharray:none;stroke-opacity:1"
       id="path346" />
  </g>
  <path
     style="fill:none;fill-opacity:1;stroke:#000000;stroke-width:2.141;stroke-linecap:butt;stroke-dasharray:none;stroke-opacity:1"
     d="m 29.348057,79.619293 c 26.251667,-21.106979 60.397718,-35.2263 94.500493,-30.751588 13.84504,1.878956 23.30106,17.576047 26.192,29.771458 4.28385,21.250494 3.56473,42.974777 -11.40871,58.911827 -11.30864,11.67938 -35.91374,11.67527 -50.930122,11.84252 -9.415287,0.62968 4.256095,0.2807 10.645144,1.75234 6.389038,1.47164 15.676258,6.5686 17.681828,15.84219 2.91085,11.94402 6.14696,23.78727 9.88835,35.49872 4.72164,13.92398 20.83017,27.56759 26.72269,29.57348 5.89251,2.00589 23.37929,4.21037 29.31716,-3.93521"
     id="path2"
     sodipodi:nodetypes="ccccczcczc" />
</svg>
